<svg display="none" width="0" height="0" version="1.1" xmlns="http://www.w3.org/2000/svg" xmlns:xlink="http://www.w3.org/1999/xlink">
<defs>
<symbol id="icon-close" viewBox="0 0 1024 1024">
	<title>close</title>
	<path class="path1" d="M149.932 874.026c-199.94-199.94-199.94-524.132 0-724.074 200.004-199.94 524.134-199.94 724.136 0 199.94 199.942 199.94 524.134 0 724.074-200.002 199.97-524.132 199.97-724.136 0zM783.566 240.454c-150.002-149.97-393.13-149.97-543.070 0-150.002 149.97-150.002 393.1 0 543.070 149.94 149.972 393.068 149.972 543.070 0 149.942-149.972 149.942-393.1 0-543.070zM376.248 738.274l-90.502-90.532 135.752-135.754-135.752-135.752 90.502-90.534 135.752 135.784 135.754-135.784 90.5 90.534-135.752 135.752 135.752 135.754-90.5 90.532-135.754-135.784-135.752 135.784z"></path>
</symbol>
</defs>
</svg>
